<?xml version="1.0" encoding="UTF-8"?>
<svg id="Layer_2" data-name="Layer 2" xmlns="http://www.w3.org/2000/svg" viewBox="0 0 856.61 856.62">
  <defs>
    <style>
      .cls-1 {
        fill: #FF6700;
      }
    </style>
  </defs>
  <g id="Layer_1-2" data-name="Layer 1">
    <path class="cls-1" d="M856.61,448.91v-41.19l-114.73-21.96c-3.66-18.47-3.9-19.66-7.58-38.13l97.61-64.19c-8.85-21.36-6.92-16.7-15.76-38.06l-114.41,23.61c-10.47-15.65-11.15-16.66-21.6-32.31l.63-.91,40.13-59.13,24.86-36.62c-16.35-16.35-12.78-12.78-29.12-29.13l-50.61,34.35-46.06,31.26c-15.65-10.46-16.66-11.12-32.3-21.6l10.06-48.73v-.02l13.55-65.66c-21.37-8.85-16.72-6.92-38.06-15.76l-32.22,48.96-31.99,48.64c-18.46-3.68-19.65-3.92-38.12-7.58l-14.05-73.42-7.91-41.33h-41.19l-9.99,52.2-11.97,62.55c-18.47,3.66-19.64,3.9-38.11,7.58l-27.09-41.17-37.12-56.44c-21.35,8.84-16.7,6.92-38.06,15.76l15.89,76.88,7.74,37.52c-15.67,10.47-16.66,11.13-32.33,21.6l-24.25-16.45-72.4-49.15c-16.35,16.35-12.8,12.78-29.14,29.13l55.58,81.89,10.03,14.77c-10.45,15.65-11.13,16.66-21.58,32.31l-9.74-2.01-104.68-21.6c-8.85,21.36-6.9,16.7-15.76,38.06l97.61,64.19c-3.68,18.47-3.91,19.66-7.58,38.13L0,407.72v41.19l114.74,21.97c3.68,18.47,3.9,19.65,7.58,38.12l-97.61,64.19c8.86,21.36,6.92,16.72,15.76,38.08l114.42-23.63c10.45,15.67,11.13,16.66,21.58,32.32l-65.61,96.66c16.35,16.35,12.8,12.79,29.14,29.14l96.65-65.61c15.67,10.45,16.66,11.13,32.33,21.58l-23.63,114.41c21.36,8.86,16.71,6.92,38.06,15.78l64.21-97.61c18.47,3.66,19.64,3.9,38.11,7.58l21.96,114.73h41.19l21.96-114.73c18.47-3.68,19.66-3.92,38.12-7.58l64.21,97.61c21.34-8.86,16.69-6.92,38.06-15.78l-23.61-114.41c15.65-10.45,16.66-11.13,32.3-21.58l96.67,65.61c16.35-16.35,12.78-12.79,29.12-29.14l-65.61-96.66c10.45-15.67,11.13-16.66,21.6-32.32l114.41,23.63c8.84-21.36,6.92-16.72,15.76-38.08l-97.61-64.19c3.68-18.47,3.92-19.65,7.58-38.12l114.73-21.97ZM428.3,678.42c-13.95,0-27.6-1.14-40.93-3.33,60.97.6,122.39-20.19,172.08-63.28,86.46-74.94,95.79-205.79,20.83-292.25-25.59-29.49-59.27-47.77-94.87-54.37-47.91-8.89-99.25,3.31-138.92,37.69-23.26,20.17-37.82,46.68-43.26,74.71-7.55,38.66,2.12,80.29,29.93,112.34,38.37,44.26,105.35,49.04,149.63,10.67,35.4-30.7,39.23-84.29,8.53-119.69-24.57-28.34-67.45-31.39-95.77-6.85-22.66,19.66-25.12,53.94-5.46,76.62,15.71,18.13,43.15,20.08,61.29,4.36,14.51-12.56,16.07-34.51,3.5-49.02-10.07-11.61-27.62-12.86-39.23-2.8-9.28,8.06-10.28,22.1-2.23,31.38,6.45,7.43,17.68,8.23,25.12,1.81,5.93-5.16,6.57-14.15,1.42-20.1-4.13-4.75-11.31-5.26-16.07-1.14-3.79,3.29-4.21,9.04-.91,12.85,2.63,3.04,7.23,3.37,10.28.73,2.35-2.02,2.68-5.54.81-7.96,1.22,1.69.77,4.05-.84,5.46-2.12,1.85-5.38,1.63-7.23-.52-2.29-2.67-2.01-6.69.66-9.01,3.33-2.89,8.37-2.54,11.26.81,3.61,4.15,3.17,10.45-1.01,14.08-5.2,4.52-13.09,3.95-17.59-1.26-5.65-6.5-4.94-16.35,1.56-21.99,8.15-7.06,20.45-6.19,27.51,1.96,8.82,10.16,7.72,25.55-2.45,34.38-12.7,11-31.94,9.62-42.98-3.06-13.77-15.89-12.04-39.94,3.84-53.72,19.86-17.21,49.9-15.09,67.15,4.77,21.51,24.84,18.83,62.41-6,83.93-31.03,26.91-78,23.56-104.89-7.49-33.65-38.79-29.43-97.5,9.34-131.12,48.49-42.03,121.88-36.79,163.92,11.7,52.53,60.61,46,152.32-14.61,204.87-75.77,65.68-190.43,57.51-256.11-18.25-26.69-30.79-43.64-66.72-51.07-104.01-.21-1.07-.42-2.14-.62-3.21-23-124.64,68.81-240.58,195.19-250.18,6.34-.48,13.8-.72,20.26-.72,138.13,0,249.05,111.97,249.05,250.1s-111.97,250.1-250.1,250.1Z"/>
  </g>
</svg>